<?xml version="1.0" ?><!DOCTYPE svg  PUBLIC '-//W3C//DTD SVG 1.1//EN'  'http://www.w3.org/Graphics/SVG/1.1/DTD/svg11.dtd'><svg enable-background="new 0 0 50 50" id="Layer_1" version="1.1" viewBox="0 0 50 50" xml:space="preserve" xmlns="http://www.w3.org/2000/svg" xmlns:xlink="http://www.w3.org/1999/xlink"><path d="M30.3,11.1L19.2,22.2l-7.4-5.5L9,17.6v13.9l2.8,1.8l7.4-5.5l11,11.1l6.6-2.8V13.9L30.3,11.1z   M11.8,28.7v-7.4l4.6,3.7L11.8,28.7z M30.3,30.5L22.9,25l7.4-5.5V30.5z" fill="#FFFFFF" id="B_1_"/><path d="M25,1C11.7,1,1,11.7,1,25s10.7,24,24,24s24-10.7,24-24S38.3,1,25,1z M25,44C14.5,44,6,35.5,6,25S14.5,6,25,6  s19,8.5,19,19S35.5,44,25,44z" fill="#39c088"/></svg>